<?xml version="1.0" encoding="UTF-8" standalone="no"?>
<!DOCTYPE svg PUBLIC "-//W3C//DTD SVG 1.1//EN"
 "http://www.w3.org/Graphics/SVG/1.1/DTD/svg11.dtd">
<!-- Generated by graphviz version 2.26.0 (20091210.2329)
 -->
<!-- Title: G Pages: 1 -->
<svg width="330pt" height="1434pt"
 viewBox="0.00 0.00 330.00 1434.00" xmlns="http://www.w3.org/2000/svg" xmlns:xlink="http://www.w3.org/1999/xlink">
<g id="graph1" class="graph" transform="scale(1 1) rotate(0) translate(4 1430)">
<title>G</title>
<polygon fill="white" stroke="white" points="-4,5 -4,-1430 327,-1430 327,5 -4,5"/>
<g id="graph2" class="cluster"><title>cluster_Global</title>
<polyline fill="none" stroke="gray" points="20,-46 302,-46 "/>
<path fill="none" stroke="gray" d="M302,-46C308,-46 314,-52 314,-58"/>
<polyline fill="none" stroke="gray" points="314,-58 314,-1406 "/>
<path fill="none" stroke="gray" d="M314,-1406C314,-1412 308,-1418 302,-1418"/>
<polyline fill="none" stroke="gray" points="302,-1418 20,-1418 "/>
<path fill="none" stroke="gray" d="M20,-1418C14,-1418 8,-1412 8,-1406"/>
<polyline fill="none" stroke="gray" points="8,-1406 8,-58 "/>
<path fill="none" stroke="gray" d="M8,-58C8,-52 14,-46 20,-46"/>
<text text-anchor="middle" x="161" y="-1404.1" font-family="Times Roman,serif" font-size="11.00" fill="gray">\</text>
</g>
<g id="graph3" class="cluster"><title>cluster_\Ginger</title>
<polyline fill="none" stroke="gray" points="28,-54 294,-54 "/>
<path fill="none" stroke="gray" d="M294,-54C300,-54 306,-60 306,-66"/>
<polyline fill="none" stroke="gray" points="306,-66 306,-1375 "/>
<path fill="none" stroke="gray" d="M306,-1375C306,-1381 300,-1387 294,-1387"/>
<polyline fill="none" stroke="gray" points="294,-1387 28,-1387 "/>
<path fill="none" stroke="gray" d="M28,-1387C22,-1387 16,-1381 16,-1375"/>
<polyline fill="none" stroke="gray" points="16,-1375 16,-66 "/>
<path fill="none" stroke="gray" d="M16,-66C16,-60 22,-54 28,-54"/>
<text text-anchor="middle" x="161" y="-1373.1" font-family="Times Roman,serif" font-size="11.00" fill="gray">Ginger</text>
</g>
<g id="graph4" class="cluster"><title>cluster_\Ginger\Mongo</title>
<polyline fill="none" stroke="gray" points="211,-1173 281,-1173 "/>
<path fill="none" stroke="gray" d="M281,-1173C287,-1173 293,-1179 293,-1185"/>
<polyline fill="none" stroke="gray" points="293,-1185 293,-1344 "/>
<path fill="none" stroke="gray" d="M293,-1344C293,-1350 287,-1356 281,-1356"/>
<polyline fill="none" stroke="gray" points="281,-1356 211,-1356 "/>
<path fill="none" stroke="gray" d="M211,-1356C205,-1356 199,-1350 199,-1344"/>
<polyline fill="none" stroke="gray" points="199,-1344 199,-1185 "/>
<path fill="none" stroke="gray" d="M199,-1185C199,-1179 205,-1173 211,-1173"/>
<text text-anchor="middle" x="246" y="-1342.1" font-family="Times Roman,serif" font-size="11.00" fill="gray">Mongo</text>
</g>
<g id="graph5" class="cluster"><title>cluster_\Ginger\Oauth</title>
<polyline fill="none" stroke="gray" points="223,-1090 269,-1090 "/>
<path fill="none" stroke="gray" d="M269,-1090C275,-1090 281,-1096 281,-1102"/>
<polyline fill="none" stroke="gray" points="281,-1102 281,-1153 "/>
<path fill="none" stroke="gray" d="M281,-1153C281,-1159 275,-1165 269,-1165"/>
<polyline fill="none" stroke="gray" points="269,-1165 223,-1165 "/>
<path fill="none" stroke="gray" d="M223,-1165C217,-1165 211,-1159 211,-1153"/>
<polyline fill="none" stroke="gray" points="211,-1153 211,-1102 "/>
<path fill="none" stroke="gray" d="M211,-1102C211,-1096 217,-1090 223,-1090"/>
<text text-anchor="middle" x="246" y="-1151.1" font-family="Times Roman,serif" font-size="11.00" fill="gray">Oauth</text>
</g>
<g id="graph6" class="cluster"><title>cluster_\Ginger\Request</title>
<polyline fill="none" stroke="gray" points="208,-899 284,-899 "/>
<path fill="none" stroke="gray" d="M284,-899C290,-899 296,-905 296,-911"/>
<polyline fill="none" stroke="gray" points="296,-911 296,-1070 "/>
<path fill="none" stroke="gray" d="M296,-1070C296,-1076 290,-1082 284,-1082"/>
<polyline fill="none" stroke="gray" points="284,-1082 208,-1082 "/>
<path fill="none" stroke="gray" d="M208,-1082C202,-1082 196,-1076 196,-1070"/>
<polyline fill="none" stroke="gray" points="196,-1070 196,-911 "/>
<path fill="none" stroke="gray" d="M196,-911C196,-905 202,-899 208,-899"/>
<text text-anchor="middle" x="246" y="-1068.1" font-family="Times Roman,serif" font-size="11.00" fill="gray">Request</text>
</g>
<g id="graph7" class="cluster"><title>cluster_\Ginger\Response</title>
<polyline fill="none" stroke="gray" points="36,-461 281,-461 "/>
<path fill="none" stroke="gray" d="M281,-461C287,-461 293,-467 293,-473"/>
<polyline fill="none" stroke="gray" points="293,-473 293,-879 "/>
<path fill="none" stroke="gray" d="M293,-879C293,-885 287,-891 281,-891"/>
<polyline fill="none" stroke="gray" points="281,-891 36,-891 "/>
<path fill="none" stroke="gray" d="M36,-891C30,-891 24,-885 24,-879"/>
<polyline fill="none" stroke="gray" points="24,-879 24,-473 "/>
<path fill="none" stroke="gray" d="M24,-473C24,-467 30,-461 36,-461"/>
<text text-anchor="middle" x="158.5" y="-877.1" font-family="Times Roman,serif" font-size="11.00" fill="gray">Response</text>
</g>
<g id="graph8" class="cluster"><title>cluster_\Ginger\Response\Format</title>
<polyline fill="none" stroke="gray" points="44,-623 269,-623 "/>
<path fill="none" stroke="gray" d="M269,-623C275,-623 281,-629 281,-635"/>
<polyline fill="none" stroke="gray" points="281,-635 281,-848 "/>
<path fill="none" stroke="gray" d="M281,-848C281,-854 275,-860 269,-860"/>
<polyline fill="none" stroke="gray" points="269,-860 44,-860 "/>
<path fill="none" stroke="gray" d="M44,-860C38,-860 32,-854 32,-848"/>
<polyline fill="none" stroke="gray" points="32,-848 32,-635 "/>
<path fill="none" stroke="gray" d="M32,-635C32,-629 38,-623 44,-623"/>
<text text-anchor="middle" x="156.5" y="-846.1" font-family="Times Roman,serif" font-size="11.00" fill="gray">Format</text>
</g>
<g id="graph9" class="cluster"><title>cluster_\Ginger\System</title>
<polyline fill="none" stroke="gray" points="208,-378 284,-378 "/>
<path fill="none" stroke="gray" d="M284,-378C290,-378 296,-384 296,-390"/>
<polyline fill="none" stroke="gray" points="296,-390 296,-441 "/>
<path fill="none" stroke="gray" d="M296,-441C296,-447 290,-453 284,-453"/>
<polyline fill="none" stroke="gray" points="284,-453 208,-453 "/>
<path fill="none" stroke="gray" d="M208,-453C202,-453 196,-447 196,-441"/>
<polyline fill="none" stroke="gray" points="196,-441 196,-390 "/>
<path fill="none" stroke="gray" d="M196,-390C196,-384 202,-378 208,-378"/>
<text text-anchor="middle" x="246" y="-439.1" font-family="Times Roman,serif" font-size="11.00" fill="gray">System</text>
</g>
<!-- \\Ginger\\Mongo\\Defaults -->
<g id="node4" class="node"><title>\\Ginger\\Mongo\\Defaults</title>
<polygon fill="none" stroke="black" points="281,-1325 211,-1325 211,-1289 281,-1289 281,-1325"/>
<text text-anchor="middle" x="246" y="-1304.1" font-family="Courier,monospace" font-size="11.00">Defaults</text>
</g>
<!-- \\Ginger\\Mongo\\Document -->
<g id="node5" class="node"><title>\\Ginger\\Mongo\\Document</title>
<polygon fill="none" stroke="black" points="281,-1271 211,-1271 211,-1235 281,-1235 281,-1271"/>
<text text-anchor="middle" x="246" y="-1250.1" font-family="Courier,monospace" font-size="11.00">Document</text>
</g>
<!-- \\Ginger\\Mongo\\Documents -->
<g id="node6" class="node"><title>\\Ginger\\Mongo\\Documents</title>
<polygon fill="none" stroke="black" points="284,-1217 208,-1217 208,-1181 284,-1181 284,-1217"/>
<text text-anchor="middle" x="246" y="-1196.1" font-family="Courier,monospace" font-size="11.00">Documents</text>
</g>
<!-- \\Ginger\\Oauth\\Token -->
<g id="node8" class="node"><title>\\Ginger\\Oauth\\Token</title>
<polygon fill="none" stroke="black" points="273,-1134 219,-1134 219,-1098 273,-1098 273,-1134"/>
<text text-anchor="middle" x="246" y="-1113.1" font-family="Courier,monospace" font-size="11.00">Token</text>
</g>
<!-- \\Ginger\\Request\\Parameters -->
<g id="node10" class="node"><title>\\Ginger\\Request\\Parameters</title>
<polygon fill="none" stroke="black" points="288,-1051 204,-1051 204,-1015 288,-1015 288,-1051"/>
<text text-anchor="middle" x="246" y="-1030.1" font-family="Courier,monospace" font-size="11.00">Parameters</text>
</g>
<!-- \\Ginger\\Request\\Route -->
<g id="node11" class="node"><title>\\Ginger\\Request\\Route</title>
<polygon fill="none" stroke="black" points="273,-997 219,-997 219,-961 273,-961 273,-997"/>
<text text-anchor="middle" x="246" y="-976.1" font-family="Courier,monospace" font-size="11.00">Route</text>
</g>
<!-- \\Ginger\\Request\\Url -->
<g id="node12" class="node"><title>\\Ginger\\Request\\Url</title>
<polygon fill="none" stroke="black" points="273,-943 219,-943 219,-907 273,-907 273,-943"/>
<text text-anchor="middle" x="246" y="-922.1" font-family="Courier,monospace" font-size="11.00">Url</text>
</g>
<!-- \\Ginger\\Url -->
<g id="node30" class="node"><title>\\Ginger\\Url</title>
<polygon fill="none" stroke="black" points="96,-943 42,-943 42,-907 96,-907 96,-943"/>
<text text-anchor="middle" x="69" y="-922.1" font-family="Courier,monospace" font-size="11.00">Url</text>
</g>
<!-- \\Ginger\\Request\\Url&#45;&gt;\\Ginger\\Url -->
<g id="edge12" class="edge"><title>\\Ginger\\Request\\Url&#45;&gt;\\Ginger\\Url</title>
<path fill="none" stroke="black" d="M218.732,-925C188.631,-925 139.994,-925 106.359,-925"/>
<polygon fill="none" stroke="black" points="106.009,-921.5 96.0089,-925 106.009,-928.5 106.009,-921.5"/>
</g>
<!-- \\Ginger\\Response\\Format\\Json -->
<g id="node15" class="node"><title>\\Ginger\\Response\\Format\\Json</title>
<polygon fill="none" stroke="black" points="273,-829 219,-829 219,-793 273,-793 273,-829"/>
<text text-anchor="middle" x="246" y="-808.1" font-family="Courier,monospace" font-size="11.00">Json</text>
</g>
<!-- \\Ginger\\Response\\Format\\Format -->
<g id="node19" class="node"><title>\\Ginger\\Response\\Format\\Format</title>
<polygon fill="none" stroke="black" points="97,-748 41,-748 41,-712 97,-712 97,-748"/>
<text text-anchor="middle" x="69" y="-727.1" font-family="Courier,monospace" font-size="11.00">Format</text>
</g>
<!-- \\Ginger\\Response\\Format\\Json&#45;&gt;\\Ginger\\Response\\Format\\Format -->
<g id="edge14" class="edge"><title>\\Ginger\\Response\\Format\\Json&#45;&gt;\\Ginger\\Response\\Format\\Format</title>
<path fill="none" stroke="black" stroke-dasharray="1,5" d="M218.605,-797.475C193.601,-785.248 155.542,-766.93 122,-752 117.23,-749.877 112.192,-747.701 107.196,-745.583"/>
<polygon fill="none" stroke="black" points="108.295,-742.249 97.7196,-741.611 105.589,-748.705 108.295,-742.249"/>
</g>
<!-- \\Ginger\\Response\\Format\\Jsonp -->
<g id="node16" class="node"><title>\\Ginger\\Response\\Format\\Jsonp</title>
<polygon fill="none" stroke="black" points="273,-775 219,-775 219,-739 273,-739 273,-775"/>
<text text-anchor="middle" x="246" y="-754.1" font-family="Courier,monospace" font-size="11.00">Jsonp</text>
</g>
<!-- \\Ginger\\Response\\Format\\Jsonp&#45;&gt;\\Ginger\\Response\\Format\\Format -->
<g id="edge16" class="edge"><title>\\Ginger\\Response\\Format\\Jsonp&#45;&gt;\\Ginger\\Response\\Format\\Format</title>
<path fill="none" stroke="black" stroke-dasharray="1,5" d="M218.732,-752.84C189.028,-748.309 141.273,-741.025 107.698,-735.903"/>
<polygon fill="none" stroke="black" points="108.182,-732.437 97.7688,-734.388 107.127,-739.357 108.182,-732.437"/>
</g>
<!-- \\Ginger\\Response\\Format\\Phps -->
<g id="node17" class="node"><title>\\Ginger\\Response\\Format\\Phps</title>
<polygon fill="none" stroke="black" points="273,-721 219,-721 219,-685 273,-685 273,-721"/>
<text text-anchor="middle" x="246" y="-700.1" font-family="Courier,monospace" font-size="11.00">Phps</text>
</g>
<!-- \\Ginger\\Response\\Format\\Phps&#45;&gt;\\Ginger\\Response\\Format\\Format -->
<g id="edge18" class="edge"><title>\\Ginger\\Response\\Format\\Phps&#45;&gt;\\Ginger\\Response\\Format\\Format</title>
<path fill="none" stroke="black" stroke-dasharray="1,5" d="M218.732,-707.16C189.028,-711.691 141.273,-718.975 107.698,-724.097"/>
<polygon fill="none" stroke="black" points="107.127,-720.643 97.7688,-725.612 108.182,-727.563 107.127,-720.643"/>
</g>
<!-- \\Ginger\\Response\\Format\\Xml -->
<g id="node18" class="node"><title>\\Ginger\\Response\\Format\\Xml</title>
<polygon fill="none" stroke="black" points="273,-667 219,-667 219,-631 273,-631 273,-667"/>
<text text-anchor="middle" x="246" y="-646.1" font-family="Courier,monospace" font-size="11.00">Xml</text>
</g>
<!-- \\Ginger\\Response\\Format\\Xml&#45;&gt;\\Ginger\\Response\\Format\\Format -->
<g id="edge20" class="edge"><title>\\Ginger\\Response\\Format\\Xml&#45;&gt;\\Ginger\\Response\\Format\\Format</title>
<path fill="none" stroke="black" stroke-dasharray="1,5" d="M218.605,-662.525C193.601,-674.752 155.542,-693.07 122,-708 117.23,-710.123 112.192,-712.299 107.196,-714.417"/>
<polygon fill="none" stroke="black" points="105.589,-711.295 97.7196,-718.389 108.295,-717.751 105.589,-711.295"/>
</g>
<!-- \\Ginger\\Response\\Documents -->
<g id="node20" class="node"><title>\\Ginger\\Response\\Documents</title>
<polygon fill="none" stroke="black" points="284,-613 208,-613 208,-577 284,-577 284,-613"/>
<text text-anchor="middle" x="246" y="-592.1" font-family="Courier,monospace" font-size="11.00">Documents</text>
</g>
<!-- \\Ginger\\Response\\Error -->
<g id="node21" class="node"><title>\\Ginger\\Response\\Error</title>
<polygon fill="none" stroke="black" points="273,-559 219,-559 219,-523 273,-523 273,-559"/>
<text text-anchor="middle" x="246" y="-538.1" font-family="Courier,monospace" font-size="11.00">Error</text>
</g>
<!-- \\Ginger\\Response\\Success -->
<g id="node22" class="node"><title>\\Ginger\\Response\\Success</title>
<polygon fill="none" stroke="black" points="278,-505 214,-505 214,-469 278,-469 278,-505"/>
<text text-anchor="middle" x="246" y="-484.1" font-family="Courier,monospace" font-size="11.00">Success</text>
</g>
<!-- \\Ginger\\System\\Parameters -->
<g id="node24" class="node"><title>\\Ginger\\System\\Parameters</title>
<polygon fill="none" stroke="black" points="288,-422 204,-422 204,-386 288,-386 288,-422"/>
<text text-anchor="middle" x="246" y="-401.1" font-family="Courier,monospace" font-size="11.00">Parameters</text>
</g>
<!-- \\Ginger\\Exception -->
<g id="node25" class="node"><title>\\Ginger\\Exception</title>
<polygon fill="none" stroke="black" points="284,-368 208,-368 208,-332 284,-332 284,-368"/>
<text text-anchor="middle" x="246" y="-347.1" font-family="Courier,monospace" font-size="11.00">Exception</text>
</g>
<!-- \\Exception -->
<g id="node33" class="node"><title>\\Exception</title>
<ellipse fill="none" stroke="black" cx="69" cy="-19" rx="53.033" ry="19.0919"/>
<text text-anchor="middle" x="69" y="-15.9" font-family="Times Roman,serif" font-size="14.00" fill="gray">\Exception</text>
</g>
<!-- \\Ginger\\Exception&#45;&gt;\\Exception -->
<g id="edge10" class="edge"><title>\\Ginger\\Exception&#45;&gt;\\Exception</title>
<path fill="none" stroke="black" d="M207.417,-334.006C202.496,-330.859 197.845,-327.203 194,-323 118.754,-240.756 85.5599,-107.021 74.0543,-48.2623"/>
<polygon fill="none" stroke="black" points="77.4476,-47.3696 72.1531,-38.1926 70.5692,-48.6683 77.4476,-47.3696"/>
</g>
<!-- \\Ginger\\Mongo -->
<g id="node26" class="node"><title>\\Ginger\\Mongo</title>
<polygon fill="none" stroke="black" points="273,-314 219,-314 219,-278 273,-278 273,-314"/>
<text text-anchor="middle" x="246" y="-293.1" font-family="Courier,monospace" font-size="11.00">Mongo</text>
</g>
<!-- \\Ginger\\Registry -->
<g id="node27" class="node"><title>\\Ginger\\Registry</title>
<polygon fill="none" stroke="black" points="281,-260 211,-260 211,-224 281,-224 281,-260"/>
<text text-anchor="middle" x="246" y="-239.1" font-family="Courier,monospace" font-size="11.00">Registry</text>
</g>
<!-- \\Ginger\\Request -->
<g id="node28" class="node"><title>\\Ginger\\Request</title>
<polygon fill="none" stroke="black" points="278,-206 214,-206 214,-170 278,-170 278,-206"/>
<text text-anchor="middle" x="246" y="-185.1" font-family="Courier,monospace" font-size="11.00">Request</text>
</g>
<!-- \\Ginger\\Response -->
<g id="node29" class="node"><title>\\Ginger\\Response</title>
<polygon fill="none" stroke="black" points="281,-152 211,-152 211,-116 281,-116 281,-152"/>
<text text-anchor="middle" x="246" y="-131.1" font-family="Courier,monospace" font-size="11.00">Response</text>
</g>
<!-- \\Ginger\\XMLSerializer -->
<g id="node31" class="node"><title>\\Ginger\\XMLSerializer</title>
<polygon fill="none" stroke="black" points="298,-98 194,-98 194,-62 298,-62 298,-98"/>
<text text-anchor="middle" x="246" y="-77.1" font-family="Courier,monospace" font-size="11.00">XMLSerializer</text>
</g>
</g>
</svg>
