<?xml version="1.0" encoding="UTF-8" standalone="no"?>
<!DOCTYPE svg PUBLIC "-//W3C//DTD SVG 1.1//EN"
 "http://www.w3.org/Graphics/SVG/1.1/DTD/svg11.dtd">
<!-- Generated by graphviz version 2.26.0 (20091210.2329)
 -->
<!-- Title: G Pages: 1 -->
<svg width="330pt" height="1434pt"
 viewBox="0.00 0.00 330.00 1434.00" xmlns="http://www.w3.org/2000/svg" xmlns:xlink="http://www.w3.org/1999/xlink">
<g id="graph1" class="graph" transform="scale(1 1) rotate(0) translate(4 1430)">
<title>G</title>
<polygon fill="white" stroke="white" points="-4,5 -4,-1430 327,-1430 327,5 -4,5"/>
<g id="graph2" class="cluster"><title>cluster_Global</title>
<polyline fill="none" stroke="gray" points="20,-46 302,-46 "/>
<path fill="none" stroke="gray" d="M302,-46C308,-46 314,-52 314,-58"/>
<polyline fill="none" stroke="gray" points="314,-58 314,-1406 "/>
<path fill="none" stroke="gray" d="M314,-1406C314,-1412 308,-1418 302,-1418"/>
<polyline fill="none" stroke="gray" points="302,-1418 20,-1418 "/>
<path fill="none" stroke="gray" d="M20,-1418C14,-1418 8,-1412 8,-1406"/>
<polyline fill="none" stroke="gray" points="8,-1406 8,-58 "/>
<path fill="none" stroke="gray" d="M8,-58C8,-52 14,-46 20,-46"/>
<text text-anchor="middle" x="161" y="-1404.1" font-family="Times Roman,serif" font-size="11.00" fill="gray">\</text>
</g>
<g id="graph3" class="cluster"><title>cluster_\Ginger</title>
<polyline fill="none" stroke="gray" points="28,-54 294,-54 "/>
<path fill="none" stroke="gray" d="M294,-54C300,-54 306,-60 306,-66"/>
<polyline fill="none" stroke="gray" points="306,-66 306,-1375 "/>
<path fill="none" stroke="gray" d="M306,-1375C306,-1381 300,-1387 294,-1387"/>
<polyline fill="none" stroke="gray" points="294,-1387 28,-1387 "/>
<path fill="none" stroke="gray" d="M28,-1387C22,-1387 16,-1381 16,-1375"/>
<polyline fill="none" stroke="gray" points="16,-1375 16,-66 "/>
<path fill="none" stroke="gray" d="M16,-66C16,-60 22,-54 28,-54"/>
<text text-anchor="middle" x="161" y="-1373.1" font-family="Times Roman,serif" font-size="11.00" fill="gray">Ginger</text>
</g>
<g id="graph4" class="cluster"><title>cluster_\Ginger\Response</title>
<polyline fill="none" stroke="gray" points="36,-926 281,-926 "/>
<path fill="none" stroke="gray" d="M281,-926C287,-926 293,-932 293,-938"/>
<polyline fill="none" stroke="gray" points="293,-938 293,-1344 "/>
<path fill="none" stroke="gray" d="M293,-1344C293,-1350 287,-1356 281,-1356"/>
<polyline fill="none" stroke="gray" points="281,-1356 36,-1356 "/>
<path fill="none" stroke="gray" d="M36,-1356C30,-1356 24,-1350 24,-1344"/>
<polyline fill="none" stroke="gray" points="24,-1344 24,-938 "/>
<path fill="none" stroke="gray" d="M24,-938C24,-932 30,-926 36,-926"/>
<text text-anchor="middle" x="158.5" y="-1342.1" font-family="Times Roman,serif" font-size="11.00" fill="gray">Response</text>
</g>
<g id="graph5" class="cluster"><title>cluster_\Ginger\Response\Format</title>
<polyline fill="none" stroke="gray" points="44,-1088 269,-1088 "/>
<path fill="none" stroke="gray" d="M269,-1088C275,-1088 281,-1094 281,-1100"/>
<polyline fill="none" stroke="gray" points="281,-1100 281,-1313 "/>
<path fill="none" stroke="gray" d="M281,-1313C281,-1319 275,-1325 269,-1325"/>
<polyline fill="none" stroke="gray" points="269,-1325 44,-1325 "/>
<path fill="none" stroke="gray" d="M44,-1325C38,-1325 32,-1319 32,-1313"/>
<polyline fill="none" stroke="gray" points="32,-1313 32,-1100 "/>
<path fill="none" stroke="gray" d="M32,-1100C32,-1094 38,-1088 44,-1088"/>
<text text-anchor="middle" x="156.5" y="-1311.1" font-family="Times Roman,serif" font-size="11.00" fill="gray">Format</text>
</g>
<g id="graph6" class="cluster"><title>cluster_\Ginger\Mongo</title>
<polyline fill="none" stroke="gray" points="211,-735 281,-735 "/>
<path fill="none" stroke="gray" d="M281,-735C287,-735 293,-741 293,-747"/>
<polyline fill="none" stroke="gray" points="293,-747 293,-906 "/>
<path fill="none" stroke="gray" d="M293,-906C293,-912 287,-918 281,-918"/>
<polyline fill="none" stroke="gray" points="281,-918 211,-918 "/>
<path fill="none" stroke="gray" d="M211,-918C205,-918 199,-912 199,-906"/>
<polyline fill="none" stroke="gray" points="199,-906 199,-747 "/>
<path fill="none" stroke="gray" d="M199,-747C199,-741 205,-735 211,-735"/>
<text text-anchor="middle" x="246" y="-904.1" font-family="Times Roman,serif" font-size="11.00" fill="gray">Mongo</text>
</g>
<g id="graph7" class="cluster"><title>cluster_\Ginger\Request</title>
<polyline fill="none" stroke="gray" points="208,-544 284,-544 "/>
<path fill="none" stroke="gray" d="M284,-544C290,-544 296,-550 296,-556"/>
<polyline fill="none" stroke="gray" points="296,-556 296,-715 "/>
<path fill="none" stroke="gray" d="M296,-715C296,-721 290,-727 284,-727"/>
<polyline fill="none" stroke="gray" points="284,-727 208,-727 "/>
<path fill="none" stroke="gray" d="M208,-727C202,-727 196,-721 196,-715"/>
<polyline fill="none" stroke="gray" points="196,-715 196,-556 "/>
<path fill="none" stroke="gray" d="M196,-556C196,-550 202,-544 208,-544"/>
<text text-anchor="middle" x="246" y="-713.1" font-family="Times Roman,serif" font-size="11.00" fill="gray">Request</text>
</g>
<g id="graph8" class="cluster"><title>cluster_\Ginger\Oauth</title>
<polyline fill="none" stroke="gray" points="223,-461 269,-461 "/>
<path fill="none" stroke="gray" d="M269,-461C275,-461 281,-467 281,-473"/>
<polyline fill="none" stroke="gray" points="281,-473 281,-524 "/>
<path fill="none" stroke="gray" d="M281,-524C281,-530 275,-536 269,-536"/>
<polyline fill="none" stroke="gray" points="269,-536 223,-536 "/>
<path fill="none" stroke="gray" d="M223,-536C217,-536 211,-530 211,-524"/>
<polyline fill="none" stroke="gray" points="211,-524 211,-473 "/>
<path fill="none" stroke="gray" d="M211,-473C211,-467 217,-461 223,-461"/>
<text text-anchor="middle" x="246" y="-522.1" font-family="Times Roman,serif" font-size="11.00" fill="gray">Oauth</text>
</g>
<g id="graph9" class="cluster"><title>cluster_\Ginger\System</title>
<polyline fill="none" stroke="gray" points="208,-378 284,-378 "/>
<path fill="none" stroke="gray" d="M284,-378C290,-378 296,-384 296,-390"/>
<polyline fill="none" stroke="gray" points="296,-390 296,-441 "/>
<path fill="none" stroke="gray" d="M296,-441C296,-447 290,-453 284,-453"/>
<polyline fill="none" stroke="gray" points="284,-453 208,-453 "/>
<path fill="none" stroke="gray" d="M208,-453C202,-453 196,-447 196,-441"/>
<polyline fill="none" stroke="gray" points="196,-441 196,-390 "/>
<path fill="none" stroke="gray" d="M196,-390C196,-384 202,-378 208,-378"/>
<text text-anchor="middle" x="246" y="-439.1" font-family="Times Roman,serif" font-size="11.00" fill="gray">System</text>
</g>
<!-- \\Ginger\\Response\\Format\\Phps -->
<g id="node5" class="node"><title>\\Ginger\\Response\\Format\\Phps</title>
<polygon fill="none" stroke="black" points="273,-1294 219,-1294 219,-1258 273,-1258 273,-1294"/>
<text text-anchor="middle" x="246" y="-1273.1" font-family="Courier,monospace" font-size="11.00">Phps</text>
</g>
<!-- \\Ginger\\Response\\Format\\Format -->
<g id="node9" class="node"><title>\\Ginger\\Response\\Format\\Format</title>
<polygon fill="none" stroke="black" points="97,-1213 41,-1213 41,-1177 97,-1177 97,-1213"/>
<text text-anchor="middle" x="69" y="-1192.1" font-family="Courier,monospace" font-size="11.00">Format</text>
</g>
<!-- \\Ginger\\Response\\Format\\Phps&#45;&gt;\\Ginger\\Response\\Format\\Format -->
<g id="edge10" class="edge"><title>\\Ginger\\Response\\Format\\Phps&#45;&gt;\\Ginger\\Response\\Format\\Format</title>
<path fill="none" stroke="black" stroke-dasharray="1,5" d="M218.732,-1263.52C188.9,-1249.87 140.861,-1227.89 107.264,-1212.51"/>
<polygon fill="none" stroke="black" points="108.318,-1209.14 97.7688,-1208.17 105.405,-1215.51 108.318,-1209.14"/>
</g>
<!-- \\Ginger\\Response\\Format\\Xml -->
<g id="node6" class="node"><title>\\Ginger\\Response\\Format\\Xml</title>
<polygon fill="none" stroke="black" points="273,-1240 219,-1240 219,-1204 273,-1204 273,-1240"/>
<text text-anchor="middle" x="246" y="-1219.1" font-family="Courier,monospace" font-size="11.00">Xml</text>
</g>
<!-- \\Ginger\\Response\\Format\\Xml&#45;&gt;\\Ginger\\Response\\Format\\Format -->
<g id="edge14" class="edge"><title>\\Ginger\\Response\\Format\\Xml&#45;&gt;\\Ginger\\Response\\Format\\Format</title>
<path fill="none" stroke="black" stroke-dasharray="1,5" d="M218.732,-1217.84C189.028,-1213.31 141.273,-1206.02 107.698,-1200.9"/>
<polygon fill="none" stroke="black" points="108.182,-1197.44 97.7688,-1199.39 107.127,-1204.36 108.182,-1197.44"/>
</g>
<!-- \\Ginger\\Response\\Format\\Json -->
<g id="node7" class="node"><title>\\Ginger\\Response\\Format\\Json</title>
<polygon fill="none" stroke="black" points="273,-1186 219,-1186 219,-1150 273,-1150 273,-1186"/>
<text text-anchor="middle" x="246" y="-1165.1" font-family="Courier,monospace" font-size="11.00">Json</text>
</g>
<!-- \\Ginger\\Response\\Format\\Json&#45;&gt;\\Ginger\\Response\\Format\\Format -->
<g id="edge18" class="edge"><title>\\Ginger\\Response\\Format\\Json&#45;&gt;\\Ginger\\Response\\Format\\Format</title>
<path fill="none" stroke="black" stroke-dasharray="1,5" d="M218.732,-1172.16C189.028,-1176.69 141.273,-1183.98 107.698,-1189.1"/>
<polygon fill="none" stroke="black" points="107.127,-1185.64 97.7688,-1190.61 108.182,-1192.56 107.127,-1185.64"/>
</g>
<!-- \\Ginger\\Response\\Format\\Jsonp -->
<g id="node8" class="node"><title>\\Ginger\\Response\\Format\\Jsonp</title>
<polygon fill="none" stroke="black" points="273,-1132 219,-1132 219,-1096 273,-1096 273,-1132"/>
<text text-anchor="middle" x="246" y="-1111.1" font-family="Courier,monospace" font-size="11.00">Jsonp</text>
</g>
<!-- \\Ginger\\Response\\Format\\Jsonp&#45;&gt;\\Ginger\\Response\\Format\\Format -->
<g id="edge20" class="edge"><title>\\Ginger\\Response\\Format\\Jsonp&#45;&gt;\\Ginger\\Response\\Format\\Format</title>
<path fill="none" stroke="black" stroke-dasharray="1,5" d="M218.605,-1127.52C193.601,-1139.75 155.542,-1158.07 122,-1173 117.23,-1175.12 112.192,-1177.3 107.196,-1179.42"/>
<polygon fill="none" stroke="black" points="105.589,-1176.3 97.7196,-1183.39 108.295,-1182.75 105.589,-1176.3"/>
</g>
<!-- \\Ginger\\Response\\Documents -->
<g id="node10" class="node"><title>\\Ginger\\Response\\Documents</title>
<polygon fill="none" stroke="black" points="284,-1078 208,-1078 208,-1042 284,-1042 284,-1078"/>
<text text-anchor="middle" x="246" y="-1057.1" font-family="Courier,monospace" font-size="11.00">Documents</text>
</g>
<!-- \\Ginger\\Response\\Success -->
<g id="node11" class="node"><title>\\Ginger\\Response\\Success</title>
<polygon fill="none" stroke="black" points="278,-1024 214,-1024 214,-988 278,-988 278,-1024"/>
<text text-anchor="middle" x="246" y="-1003.1" font-family="Courier,monospace" font-size="11.00">Success</text>
</g>
<!-- \\Ginger\\Response\\Error -->
<g id="node12" class="node"><title>\\Ginger\\Response\\Error</title>
<polygon fill="none" stroke="black" points="273,-970 219,-970 219,-934 273,-934 273,-970"/>
<text text-anchor="middle" x="246" y="-949.1" font-family="Courier,monospace" font-size="11.00">Error</text>
</g>
<!-- \\Ginger\\Mongo\\Documents -->
<g id="node14" class="node"><title>\\Ginger\\Mongo\\Documents</title>
<polygon fill="none" stroke="black" points="284,-887 208,-887 208,-851 284,-851 284,-887"/>
<text text-anchor="middle" x="246" y="-866.1" font-family="Courier,monospace" font-size="11.00">Documents</text>
</g>
<!-- \\Ginger\\Mongo\\Document -->
<g id="node15" class="node"><title>\\Ginger\\Mongo\\Document</title>
<polygon fill="none" stroke="black" points="281,-833 211,-833 211,-797 281,-797 281,-833"/>
<text text-anchor="middle" x="246" y="-812.1" font-family="Courier,monospace" font-size="11.00">Document</text>
</g>
<!-- \\Ginger\\Mongo\\Defaults -->
<g id="node16" class="node"><title>\\Ginger\\Mongo\\Defaults</title>
<polygon fill="none" stroke="black" points="281,-779 211,-779 211,-743 281,-743 281,-779"/>
<text text-anchor="middle" x="246" y="-758.1" font-family="Courier,monospace" font-size="11.00">Defaults</text>
</g>
<!-- \\Ginger\\Request\\Url -->
<g id="node18" class="node"><title>\\Ginger\\Request\\Url</title>
<polygon fill="none" stroke="black" points="273,-696 219,-696 219,-660 273,-660 273,-696"/>
<text text-anchor="middle" x="246" y="-675.1" font-family="Courier,monospace" font-size="11.00">Url</text>
</g>
<!-- \\Ginger\\Url -->
<g id="node28" class="node"><title>\\Ginger\\Url</title>
<polygon fill="none" stroke="black" points="96,-696 42,-696 42,-660 96,-660 96,-696"/>
<text text-anchor="middle" x="69" y="-675.1" font-family="Courier,monospace" font-size="11.00">Url</text>
</g>
<!-- \\Ginger\\Request\\Url&#45;&gt;\\Ginger\\Url -->
<g id="edge12" class="edge"><title>\\Ginger\\Request\\Url&#45;&gt;\\Ginger\\Url</title>
<path fill="none" stroke="black" d="M218.732,-678C188.631,-678 139.994,-678 106.359,-678"/>
<polygon fill="none" stroke="black" points="106.009,-674.5 96.0089,-678 106.009,-681.5 106.009,-674.5"/>
</g>
<!-- \\Ginger\\Request\\Parameters -->
<g id="node19" class="node"><title>\\Ginger\\Request\\Parameters</title>
<polygon fill="none" stroke="black" points="288,-642 204,-642 204,-606 288,-606 288,-642"/>
<text text-anchor="middle" x="246" y="-621.1" font-family="Courier,monospace" font-size="11.00">Parameters</text>
</g>
<!-- \\Ginger\\Request\\Route -->
<g id="node20" class="node"><title>\\Ginger\\Request\\Route</title>
<polygon fill="none" stroke="black" points="273,-588 219,-588 219,-552 273,-552 273,-588"/>
<text text-anchor="middle" x="246" y="-567.1" font-family="Courier,monospace" font-size="11.00">Route</text>
</g>
<!-- \\Ginger\\Oauth\\Token -->
<g id="node22" class="node"><title>\\Ginger\\Oauth\\Token</title>
<polygon fill="none" stroke="black" points="273,-505 219,-505 219,-469 273,-469 273,-505"/>
<text text-anchor="middle" x="246" y="-484.1" font-family="Courier,monospace" font-size="11.00">Token</text>
</g>
<!-- \\Ginger\\System\\Parameters -->
<g id="node24" class="node"><title>\\Ginger\\System\\Parameters</title>
<polygon fill="none" stroke="black" points="288,-422 204,-422 204,-386 288,-386 288,-422"/>
<text text-anchor="middle" x="246" y="-401.1" font-family="Courier,monospace" font-size="11.00">Parameters</text>
</g>
<!-- \\Ginger\\Response -->
<g id="node25" class="node"><title>\\Ginger\\Response</title>
<polygon fill="none" stroke="black" points="281,-368 211,-368 211,-332 281,-332 281,-368"/>
<text text-anchor="middle" x="246" y="-347.1" font-family="Courier,monospace" font-size="11.00">Response</text>
</g>
<!-- \\Ginger\\XMLSerializer -->
<g id="node26" class="node"><title>\\Ginger\\XMLSerializer</title>
<polygon fill="none" stroke="black" points="298,-314 194,-314 194,-278 298,-278 298,-314"/>
<text text-anchor="middle" x="246" y="-293.1" font-family="Courier,monospace" font-size="11.00">XMLSerializer</text>
</g>
<!-- \\Ginger\\Request -->
<g id="node27" class="node"><title>\\Ginger\\Request</title>
<polygon fill="none" stroke="black" points="278,-260 214,-260 214,-224 278,-224 278,-260"/>
<text text-anchor="middle" x="246" y="-239.1" font-family="Courier,monospace" font-size="11.00">Request</text>
</g>
<!-- \\Ginger\\Exception -->
<g id="node29" class="node"><title>\\Ginger\\Exception</title>
<polygon fill="none" stroke="black" points="284,-206 208,-206 208,-170 284,-170 284,-206"/>
<text text-anchor="middle" x="246" y="-185.1" font-family="Courier,monospace" font-size="11.00">Exception</text>
</g>
<!-- \\Exception -->
<g id="node36" class="node"><title>\\Exception</title>
<ellipse fill="none" stroke="black" cx="69" cy="-19" rx="53.033" ry="19.0919"/>
<text text-anchor="middle" x="69" y="-15.9" font-family="Times Roman,serif" font-size="14.00" fill="gray">\Exception</text>
</g>
<!-- \\Ginger\\Exception&#45;&gt;\\Exception -->
<g id="edge16" class="edge"><title>\\Ginger\\Exception&#45;&gt;\\Exception</title>
<path fill="none" stroke="black" d="M207.293,-170.829C202.559,-167.905 197.992,-164.624 194,-161 150.463,-121.474 164.529,-90.6089 122,-50 118.195,-46.3664 113.886,-42.9815 109.411,-39.8845"/>
<polygon fill="none" stroke="black" points="110.993,-36.7419 100.685,-34.2941 107.217,-42.6359 110.993,-36.7419"/>
</g>
<!-- \\Ginger\\Mongo -->
<g id="node30" class="node"><title>\\Ginger\\Mongo</title>
<polygon fill="none" stroke="black" points="273,-152 219,-152 219,-116 273,-116 273,-152"/>
<text text-anchor="middle" x="246" y="-131.1" font-family="Courier,monospace" font-size="11.00">Mongo</text>
</g>
<!-- \\Ginger\\Registry -->
<g id="node31" class="node"><title>\\Ginger\\Registry</title>
<polygon fill="none" stroke="black" points="281,-98 211,-98 211,-62 281,-62 281,-98"/>
<text text-anchor="middle" x="246" y="-77.1" font-family="Courier,monospace" font-size="11.00">Registry</text>
</g>
</g>
</svg>
